<?xml version="1.0" standalone="no"?>
<!DOCTYPE svg PUBLIC "-//W3C//DTD SVG 20010904//EN"
 "http://www.w3.org/TR/2001/REC-SVG-20010904/DTD/svg10.dtd">
<svg version="1.0" xmlns="http://www.w3.org/2000/svg"
 width="787.000000pt" height="787.000000pt" viewBox="0 0 787.000000 787.000000"
 preserveAspectRatio="xMidYMid meet">
<metadata>
Created by potrace 1.11, written by Peter Selinger 2001-2013
</metadata>
<g transform="translate(0.000000,787.000000) scale(0.100000,-0.100000)"
fill="#000000" stroke="none">
<path d="M5386 7841 c48 -81 253 -280 334 -324 57 -31 26 -28 -38 3 -67 32
-82 36 -82 20 0 -5 66 -42 148 -80 81 -39 164 -80 185 -91 21 -12 41 -19 44
-15 3 3 -15 15 -41 28 -25 12 -46 26 -46 30 0 4 -6 8 -14 8 -7 0 -19 7 -26 15
-7 8 -10 15 -6 15 3 0 66 -30 140 -67 l133 -66 129 -236 c71 -129 153 -281
182 -336 30 -55 74 -137 99 -183 24 -46 57 -106 72 -135 111 -210 135 -247
162 -247 10 0 19 -4 19 -10 0 -5 -6 -10 -12 -10 -7 0 -3 -6 8 -14 20 -14 71
-15 131 -2 83 18 173 35 218 42 17 2 42 9 57 15 15 6 34 9 42 6 8 -3 16 -3 18
1 2 4 66 20 143 35 77 15 147 30 157 32 9 2 37 7 62 10 42 7 46 10 46 35 0 27
-1 27 -42 19 -24 -4 -95 -18 -158 -29 -63 -12 -187 -38 -274 -57 -87 -18 -166
-33 -175 -31 -20 4 607 158 643 158 3 0 6 20 6 45 0 32 -4 45 -14 45 -19 0
-446 -98 -701 -160 -66 -17 -127 -30 -135 -30 -8 0 -34 37 -59 83 -24 45 -61
111 -81 147 -21 36 -55 99 -77 140 -133 248 -188 348 -204 372 -11 14 -19 29
-19 32 0 4 -25 53 -56 109 -31 56 -71 129 -89 162 -36 66 -24 58 -275 179 -75
36 -162 83 -194 105 -76 51 -214 178 -246 225 -23 34 -28 36 -78 36 l-53 0 17
-29z"/>
<path d="M4485 7729 c-33 -4 -97 -19 -143 -34 -45 -14 -96 -28 -113 -30 -17
-2 -45 -10 -63 -18 -17 -9 -71 -18 -121 -22 -101 -7 -166 -18 -209 -35 -16 -6
-44 -7 -65 -3 -39 7 -49 9 -70 11 -7 1 -11 8 -8 16 4 11 -3 13 -36 9 -46 -5
-356 -100 -372 -114 -5 -5 -19 -9 -32 -9 -13 0 -23 -3 -23 -7 0 -11 -95 -63
-115 -63 -9 0 -13 -4 -10 -10 3 -5 -3 -10 -14 -10 -14 0 -23 -9 -27 -25 -4
-15 -13 -25 -25 -25 -27 0 -69 -21 -69 -35 0 -20 -50 -64 -70 -62 -10 1 -17 4
-15 8 3 3 -5 17 -17 30 -16 19 -22 21 -26 9 -3 -8 -20 -28 -39 -44 -18 -16
-33 -36 -33 -43 0 -7 -9 -18 -20 -25 -11 -7 -20 -20 -20 -28 0 -9 -5 -21 -12
-28 -9 -9 -9 -12 0 -12 6 0 9 -7 5 -16 -3 -9 -13 -14 -24 -11 -11 3 -22 1 -25
-4 -4 -6 -11 -6 -19 1 -10 8 -10 17 -2 40 12 32 -5 65 -30 56 -8 -3 -12 -2 -9
2 2 4 1 14 -3 20 -9 15 -65 -101 -58 -121 2 -7 -4 -23 -14 -36 -11 -13 -19
-30 -19 -39 0 -23 -45 -59 -71 -57 -18 1 -27 10 -35 35 -7 22 -13 28 -17 19
-4 -10 -6 -9 -6 4 -1 14 -6 12 -31 -13 -16 -16 -36 -30 -45 -30 -23 0 -29 -2
-42 -16 -17 -17 -16 -29 3 -48 8 -9 11 -16 5 -16 -24 0 -9 -26 15 -28 38 -3
78 -45 72 -76 -3 -17 0 -27 10 -31 13 -5 12 -9 -6 -27 -19 -19 -19 -23 -5 -33
15 -11 15 -14 0 -35 l-16 -23 -9 34 c-8 27 -10 29 -11 11 -1 -29 -22 -25 -36
6 -5 12 -13 22 -18 22 -4 0 -18 10 -30 23 -13 12 -28 22 -35 23 -27 2 -32 4
-32 14 0 5 7 7 15 4 8 -4 15 -1 15 5 0 7 -8 14 -17 17 -10 3 -39 16 -66 29
-26 13 -56 21 -67 18 -25 -7 -19 -17 20 -33 23 -10 28 -16 20 -25 -7 -9 -7
-15 -1 -19 14 -9 41 -66 41 -88 0 -11 14 -32 30 -46 17 -15 30 -32 30 -38 0
-7 5 -14 12 -16 6 -2 8 -10 4 -17 -5 -7 -14 -10 -22 -7 -19 7 -18 0 4 -23 34
-39 42 -50 42 -66 0 -8 -7 -15 -15 -15 -8 0 -15 -4 -15 -10 0 -5 -7 -10 -15
-10 -17 0 -20 -17 -4 -22 16 -5 1 -52 -21 -66 -17 -10 -20 -9 -25 11 -8 29
-73 52 -107 37 -21 -9 -20 -10 7 -5 24 4 26 3 13 -5 -16 -10 -16 -12 3 -31 11
-11 24 -17 29 -14 6 4 7 -2 3 -12 -6 -16 -5 -16 10 -4 15 12 17 12 11 -4 -5
-11 -3 -16 2 -12 6 3 11 -3 11 -14 3 -38 -42 -23 -211 70 -46 26 -56 28 -66
16 -10 -12 -5 -21 25 -50 21 -19 44 -35 51 -35 7 0 19 -8 26 -19 7 -10 24 -22
38 -26 29 -9 45 -25 45 -45 0 -8 17 -23 38 -33 20 -10 37 -23 37 -28 0 -13
-13 -11 -72 10 -29 10 -70 19 -90 19 -20 0 -58 12 -85 26 -85 45 -122 59 -140
51 -17 -8 -17 -8 0 -12 9 -3 17 -8 17 -13 0 -5 18 -20 40 -33 22 -13 37 -27
33 -31 -4 -4 0 -4 10 0 17 6 37 -5 87 -46 l25 -21 -40 7 c-22 3 -44 10 -49 15
-6 5 -18 9 -28 9 -9 0 -21 6 -25 13 -10 17 -88 55 -131 63 -27 5 -32 4 -32
-12 -1 -37 -26 -57 -62 -49 -18 4 -41 14 -51 23 -16 15 -17 14 -11 -1 3 -9 10
-17 15 -17 5 0 9 -7 9 -16 0 -12 -11 -14 -57 -12 -38 2 -58 -1 -60 -9 -3 -8 4
-13 16 -13 11 0 25 -8 30 -17 7 -12 10 -13 11 -4 0 8 6 11 16 7 8 -3 12 -2 9
3 -11 19 14 21 51 5 34 -15 36 -18 19 -24 -11 -4 -28 -6 -37 -4 -25 4 -44 -22
-28 -41 8 -10 9 -15 2 -15 -6 0 -9 -6 -6 -13 8 -22 -22 -40 -55 -32 -30 6 -53
25 -32 25 17 0 13 27 -5 34 -23 9 -27 8 -20 -10 3 -9 -5 -25 -21 -40 -23 -21
-25 -27 -13 -34 8 -6 23 -10 33 -10 24 0 57 -18 57 -30 0 -16 -43 -11 -69 7
-14 9 -21 11 -16 4 6 -10 3 -11 -14 -2 -17 10 -21 9 -21 -3 0 -10 -6 -13 -17
-10 -15 5 -15 3 1 -10 11 -9 28 -16 38 -16 9 0 22 -10 29 -22 9 -17 9 -20 -2
-16 -8 3 -38 11 -67 19 -45 11 -55 11 -62 -1 -12 -20 -3 -35 33 -53 l32 -16
-46 0 -46 -1 6 -37 c4 -26 13 -41 29 -48 28 -13 28 -25 0 -25 -42 0 -46 -10
-49 -112 0 -11 -8 -18 -20 -18 -22 0 -23 -1 -7 -35 10 -22 8 -29 -11 -49 -13
-14 -20 -29 -17 -35 3 -5 1 -21 -5 -35 -10 -21 -8 -29 10 -52 11 -15 21 -31
21 -37 0 -6 8 -19 17 -29 22 -25 26 -55 8 -62 -13 -5 -13 -9 -3 -25 10 -17 9
-23 -6 -40 -23 -26 -17 -54 14 -62 74 -18 73 -17 54 -91 -3 -9 0 -19 6 -23 16
-10 12 -25 -5 -19 -8 4 -15 12 -15 20 0 8 -6 14 -14 14 -8 0 -21 3 -30 6 -29
11 -17 -24 15 -47 17 -12 37 -36 44 -53 11 -24 19 -31 42 -31 15 0 28 -2 28
-5 0 -3 7 -17 16 -30 10 -16 13 -32 8 -45 -13 -34 -10 -75 6 -81 8 -4 15 -10
15 -16 0 -10 -70 0 -85 13 -16 15 -23 10 -27 -21 -3 -22 2 -36 19 -52 13 -12
23 -27 23 -35 0 -17 69 -87 95 -97 16 -6 17 -9 5 -16 -13 -8 -13 -13 -1 -31
12 -20 11 -24 -3 -34 -20 -15 -21 -35 -2 -35 7 0 19 -6 25 -13 8 -11 6 -18 -9
-32 -17 -15 -24 -16 -50 -5 -17 7 -33 10 -36 7 -8 -8 5 -27 19 -27 18 0 39
-51 27 -65 -5 -7 -7 -15 -3 -19 4 -4 0 -4 -8 -1 -23 9 -42 -20 -35 -50 5 -18
2 -27 -9 -31 -8 -4 -15 -12 -15 -20 0 -13 -19 -20 -69 -26 -34 -4 -35 -19 -7
-61 l25 -37 -22 -15 c-12 -8 -32 -15 -44 -15 -13 0 -23 -4 -23 -10 0 -5 4 -10
8 -10 16 0 30 -45 20 -63 -12 -22 8 -85 35 -110 16 -14 17 -20 7 -32 -13 -15
3 -25 65 -41 14 -3 25 -10 25 -14 0 -5 14 -11 30 -15 17 -4 28 -11 24 -16 -3
-5 2 -16 10 -25 13 -13 23 -74 17 -108 -1 -4 4 -14 10 -22 6 -8 8 -14 5 -14
-4 0 -1 -10 6 -22 7 -13 11 -26 10 -30 -1 -5 4 -8 11 -9 6 0 20 -2 29 -4 12
-2 18 3 18 15 0 11 7 17 18 16 12 -1 16 5 15 22 -2 13 3 22 11 22 9 0 13 10
11 30 -1 16 1 27 6 24 16 -10 51 7 45 22 -6 15 11 18 38 8 9 -3 13 -10 10 -15
-3 -6 0 -16 6 -24 6 -8 8 -20 4 -27 -4 -7 -4 -10 1 -6 4 4 14 -4 22 -18 17
-34 17 -44 -2 -44 -21 0 -19 -9 8 -31 l22 -18 -42 -1 c-24 0 -43 -4 -43 -10 0
-5 -11 -10 -25 -10 -14 0 -28 -7 -31 -15 -4 -8 -14 -15 -24 -15 -29 0 -18
-109 20 -217 17 -48 34 -98 37 -110 3 -13 9 -23 14 -23 5 0 9 -6 9 -12 1 -27
86 -96 148 -118 34 -13 60 -25 58 -27 -3 -3 13 -22 36 -42 36 -34 45 -37 87
-34 35 2 53 -2 68 -16 10 -10 29 -24 41 -30 13 -7 22 -17 21 -24 -3 -20 12
-47 23 -41 6 4 5 -2 -1 -14 -15 -27 -13 -43 4 -67 14 -18 16 -18 32 -3 14 15
14 21 3 49 -11 25 -11 34 -2 37 18 6 14 46 -7 68 -21 23 -51 148 -56 239 0 6
-4 15 -7 21 -7 11 -12 28 -29 114 -7 30 -18 69 -25 87 -8 17 -14 40 -14 52 0
12 -3 21 -7 21 -5 0 -9 21 -11 46 -1 26 -5 51 -9 57 -4 6 -8 29 -9 52 -2 22
-5 51 -8 64 -3 14 -6 49 -7 78 -2 43 -7 57 -30 79 l-28 27 24 34 c14 21 22 45
20 61 -2 15 -4 66 -6 115 -1 48 -6 87 -11 87 -4 0 -2 10 6 23 8 13 13 45 12
80 0 31 3 57 8 57 4 0 5 8 1 18 -3 9 -9 58 -11 107 -3 50 -7 104 -9 120 -9 76
-28 182 -35 200 -11 28 -41 132 -45 157 -3 12 -9 26 -15 32 -5 5 -10 18 -10
27 0 10 -7 25 -16 33 -10 10 -11 16 -3 16 7 0 8 4 2 13 -14 19 -31 104 -38
187 -7 93 -15 142 -26 156 -10 12 0 86 11 79 4 -3 8 21 9 53 2 72 6 113 13
132 4 8 9 29 12 45 17 99 26 138 34 148 5 7 12 28 16 48 8 44 31 92 51 109 8
7 12 16 10 21 -3 4 2 17 12 28 10 10 33 35 51 55 18 20 39 36 47 36 8 0 18 6
22 14 12 21 52 38 73 31 10 -3 21 -1 24 4 4 6 12 8 19 5 8 -3 26 7 41 21 15
14 30 25 33 25 3 0 11 7 17 15 6 8 22 16 36 17 14 2 30 6 35 9 6 4 27 9 47 13
37 7 119 71 115 90 -2 11 49 27 57 18 3 -3 6 6 6 20 0 17 7 27 19 31 14 3 17
11 14 31 -4 19 -1 26 11 26 9 0 16 7 16 15 0 8 8 30 18 49 21 42 64 57 141 49
39 -4 52 -3 47 6 -4 6 -3 11 3 11 5 0 12 -6 14 -12 4 -10 8 -9 16 2 10 13 15
8 12 -12 0 -4 11 -3 25 2 35 14 44 13 44 -5 0 -8 5 -15 10 -15 6 0 10 7 10 16
0 8 4 13 9 9 5 -3 13 0 17 6 4 7 9 7 13 1 3 -5 21 -7 40 -4 23 3 29 7 20 13
-10 6 -5 9 14 9 16 0 42 -9 58 -21 16 -11 33 -18 37 -15 5 3 25 6 45 8 21 1
37 5 37 9 0 9 49 8 55 0 4 -8 73 -6 131 3 21 4 34 2 34 -5 0 -6 7 -9 15 -6 8
4 17 2 20 -3 3 -5 27 -7 53 -6 26 2 61 -2 77 -9 66 -27 146 -46 215 -50 19 -2
40 -3 47 -4 6 0 19 -9 29 -18 10 -10 19 -17 21 -15 2 1 4 2 6 1 1 0 20 -2 43
-4 23 -1 58 -8 78 -15 20 -6 48 -9 62 -6 15 4 30 1 38 -7 11 -10 28 -12 68 -7
29 4 56 6 61 3 4 -2 7 0 7 5 0 5 34 10 76 11 44 1 73 -2 70 -8 -6 -9 79 -5 96
5 4 3 8 1 8 -5 0 -6 8 -7 22 -2 12 4 38 4 58 -1 19 -6 69 -11 110 -13 84 -4
130 -13 130 -26 0 -5 6 -6 14 -3 8 3 31 -10 52 -30 21 -20 44 -36 51 -36 7 0
13 -7 13 -15 0 -8 5 -15 10 -15 6 0 10 -6 10 -13 0 -7 18 -23 39 -36 43 -27
57 -63 35 -86 -12 -12 -11 -16 7 -29 15 -10 20 -21 16 -37 -3 -12 -2 -29 3
-38 12 -20 30 -143 37 -241 3 -41 9 -78 15 -81 7 -4 10 -42 8 -95 -4 -131 -1
-247 6 -264 4 -8 8 -26 8 -40 1 -14 10 -44 20 -67 10 -23 16 -45 14 -48 -1 -4
5 -11 15 -16 12 -7 16 -17 12 -30 -4 -12 -1 -21 10 -25 9 -4 14 -13 11 -21 -3
-7 1 -16 8 -19 8 -3 22 -31 32 -62 9 -31 25 -64 35 -74 11 -9 19 -19 19 -23 0
-3 7 -13 15 -22 8 -8 13 -19 10 -24 -4 -5 -1 -9 4 -9 6 0 11 -7 11 -15 0 -8 4
-15 9 -15 5 0 15 -16 21 -35 6 -19 17 -38 24 -42 21 -14 86 -105 80 -114 -3
-5 1 -9 8 -9 7 0 19 -14 26 -30 8 -17 33 -49 58 -73 24 -23 44 -48 44 -55 0
-18 22 -39 38 -36 7 1 8 0 2 -3 -5 -2 -7 -16 -4 -29 4 -17 1 -29 -11 -37 -20
-15 -12 -69 10 -61 17 7 31 -46 14 -56 -8 -6 -8 -9 1 -12 7 -2 12 -24 12 -51
1 -26 5 -47 10 -47 5 0 6 4 3 10 -3 6 -2 10 4 10 5 0 16 -13 25 -30 8 -17 10
-30 5 -30 -17 0 -9 -29 11 -43 26 -18 40 -65 29 -94 -5 -13 -4 -35 2 -51 5
-16 9 -33 8 -38 -1 -5 -1 -25 0 -45 1 -28 7 -38 26 -47 25 -11 25 -13 9 -37
-16 -24 -15 -25 5 -25 14 0 19 -5 15 -15 -4 -8 -14 -15 -24 -15 -13 0 -16 -6
-12 -25 3 -19 0 -25 -14 -25 -17 -1 -17 -2 -3 -10 13 -8 15 -18 9 -52 -5 -24
-7 -45 -5 -47 2 -2 -3 -10 -11 -18 -8 -8 -11 -19 -8 -25 6 -9 13 -83 18 -175
1 -11 4 -19 9 -16 4 2 7 -1 7 -6 0 -6 -4 -11 -8 -11 -17 0 -18 -86 -1 -125 7
-16 13 -34 14 -40 0 -5 3 -14 6 -20 3 -5 13 -37 23 -70 14 -47 25 -65 47 -77
l29 -17 38 41 c20 22 44 48 52 56 11 12 12 16 2 20 -6 2 -12 16 -12 30 0 22 2
24 11 12 8 -12 10 -8 7 16 -3 23 1 35 15 43 11 7 16 18 13 28 -4 8 -1 22 5 29
9 11 8 19 -6 35 -12 12 -19 37 -21 66 -1 36 -7 51 -23 61 -22 15 -29 42 -11
42 7 0 7 6 1 18 -7 14 -5 22 10 32 11 9 17 21 14 31 -3 10 1 19 10 23 10 4 13
11 8 18 -4 7 -8 22 -10 33 -1 11 0 15 3 9 3 -7 14 -9 26 -7 11 3 23 1 27 -6 6
-8 15 -8 40 0 22 8 36 8 42 2 7 -7 24 -6 52 2 39 11 42 15 48 53 3 22 10 47
17 55 8 9 10 30 6 59 -9 67 6 78 117 78 76 0 92 3 109 20 11 11 20 24 20 30 0
6 5 10 10 10 6 0 10 5 10 10 0 6 12 29 27 53 14 23 26 47 26 54 0 7 4 10 8 7
13 -7 30 33 22 52 -4 12 -3 15 6 10 9 -6 12 -2 11 10 -1 11 -2 30 -1 44 1 21
3 22 12 10 9 -12 10 -11 6 7 -5 22 14 48 26 36 4 -3 7 -1 7 5 0 7 -5 12 -11
12 -8 0 -8 4 -1 13 9 10 8 19 -2 33 -19 28 -29 64 -17 64 5 0 12 -8 14 -17 3
-10 5 -5 6 12 2 35 15 60 32 60 7 0 17 9 23 20 6 10 17 25 24 33 7 7 12 26 11
40 0 15 3 50 9 79 5 30 5 56 0 61 -10 10 -15 45 -24 172 -8 118 -5 122 98 121
75 -1 106 9 94 28 -4 6 0 11 11 11 17 1 17 1 1 11 -10 5 -18 20 -18 32 0 18
-9 25 -45 36 -26 8 -44 18 -42 25 3 6 -1 22 -9 36 -7 14 -15 32 -17 41 -3 9
-32 23 -68 34 -35 10 -68 24 -74 30 -5 7 -27 17 -47 24 -45 15 -63 35 -52 58
18 41 26 192 13 251 -5 21 -15 82 -23 137 -22 144 -30 174 -74 277 -11 25 -18
49 -14 53 4 3 -1 11 -11 16 -9 6 -15 15 -12 20 4 5 -1 23 -9 40 -9 17 -13 35
-10 40 3 5 1 9 -4 9 -6 0 -13 12 -17 28 -3 15 -12 34 -19 42 -7 8 -18 35 -25
60 -8 25 -22 68 -32 95 -10 28 -21 64 -25 80 -4 17 -26 71 -50 120 -58 125
-74 164 -74 186 0 21 -111 185 -141 209 -3 3 -13 19 -22 36 -8 16 -54 69 -101
117 -47 48 -86 92 -86 96 0 8 -15 27 -90 107 -15 18 -47 47 -71 65 -23 19 -52
43 -63 54 -12 11 -42 37 -68 57 -25 21 -66 57 -90 80 -25 24 -58 51 -74 61
-66 41 -134 78 -139 77 -3 0 -18 6 -33 14 -226 121 -380 173 -552 186 -129 11
-141 11 -225 -1z m685 -181 c0 -6 -13 -8 -31 -4 -17 3 -48 7 -68 7 -35 1 -35
1 -6 8 40 8 105 1 105 -11z m-22 -45 c-10 -2 -28 -2 -40 0 -13 2 -5 4 17 4 22
1 32 -1 23 -4z m-262 -74 c5 -9 -18 -10 -87 -5 -51 4 -95 9 -98 11 -2 3 37 5
87 5 57 0 93 -4 98 -11z m77 -36 c-7 -2 -21 -2 -30 0 -10 3 -4 5 12 5 17 0 24
-2 18 -5z m135 -8 c47 -7 36 -18 -12 -11 -27 3 -59 6 -72 6 -13 0 -24 5 -24
11 0 8 14 9 43 5 23 -4 53 -9 65 -11z m198 -75 c34 -13 88 -55 59 -46 -23 7
-135 15 -209 16 -27 0 -46 3 -43 7 4 3 38 5 76 5 58 -1 69 1 65 13 -7 18 13
19 52 5z m142 -127 c-16 -2 -40 -2 -55 0 -16 2 -3 4 27 4 30 0 43 -2 28 -4z
m-2578 -23 c0 -5 -2 -10 -4 -10 -3 0 -8 5 -11 10 -3 6 -1 10 4 10 6 0 11 -4
11 -10z m2724 -405 c-6 -16 -24 -21 -24 -7 0 11 11 22 21 22 5 0 6 -7 3 -15z
m-3584 -615 c0 -5 -4 -10 -10 -10 -5 0 -10 5 -10 10 0 6 5 10 10 10 6 0 10 -4
10 -10z m-140 -60 c8 -5 11 -10 5 -10 -5 0 -17 5 -25 10 -8 5 -10 10 -5 10 6
0 17 -5 25 -10z m-545 -560 c4 -7 -3 -8 -22 -4 -38 9 -42 14 -10 14 14 0 29
-5 32 -10z m4406 -1261 c-5 -13 -10 -19 -10 -12 -1 15 10 45 15 40 3 -2 0 -15
-5 -28z m-4136 -353 c24 -10 35 -22 35 -35 0 -12 -5 -21 -11 -21 -6 0 -8 -7
-5 -15 3 -9 -1 -18 -10 -22 -13 -5 -13 -7 -2 -15 8 -5 -9 -6 -45 -2 -52 6 -62
4 -98 -20 -22 -15 -44 -39 -50 -54 -8 -19 -12 -23 -18 -13 -5 8 -13 11 -19 7
-15 -9 -42 22 -36 39 4 9 0 15 -10 15 -23 0 -20 17 9 46 13 13 22 30 19 37 -5
14 34 37 91 56 45 14 111 13 150 -3z m4558 -177 c16 -18 16 -24 5 -50 -22 -50
-58 -30 -53 31 3 43 2 40 18 40 7 0 21 -9 30 -21z"/>
<path d="M5266 7302 c-3 -5 1 -9 9 -9 8 0 12 4 9 9 -3 4 -7 8 -9 8 -2 0 -6 -4
-9 -8z"/>
<path d="M2625 7279 c-11 -16 -1 -19 13 -3 7 8 8 14 3 14 -5 0 -13 -5 -16 -11z"/>
<path d="M1763 6753 c-32 -13 -6 -43 38 -43 24 0 24 12 1 33 -20 18 -20 18
-39 10z"/>
<path d="M1670 6635 c0 -8 5 -15 10 -15 6 0 10 7 10 15 0 8 -4 15 -10 15 -5 0
-10 -7 -10 -15z"/>
<path d="M1883 6636 c1 -11 9 -21 17 -23 10 -3 11 -2 4 4 -6 4 -14 15 -17 23
-5 11 -6 9 -4 -4z"/>
<path d="M1560 6495 c-27 -44 -17 -60 41 -69 42 -7 77 -23 94 -43 6 -8 15 -9
23 -4 11 6 11 13 0 37 -7 16 -21 36 -30 45 -10 9 -18 21 -18 27 0 13 -51 42
-74 42 -8 0 -24 -16 -36 -35z"/>
<path d="M1810 6462 c0 -15 11 -20 61 -28 36 -5 42 -4 32 7 -7 7 -18 14 -25
15 -7 1 -25 5 -40 9 -18 4 -28 3 -28 -3z"/>
<path d="M1528 6393 c-11 -20 -13 -35 -7 -52 8 -21 13 -23 49 -17 23 3 49 2
60 -4 13 -7 20 -7 20 -1 0 6 -13 17 -30 26 -16 8 -37 29 -45 45 -19 37 -26 37
-47 3z"/>
<path d="M1766 6351 c-6 -9 26 -21 54 -21 9 1 5 7 -10 15 -30 17 -37 18 -44 6z"/>
<path d="M2605 6330 c-3 -5 -1 -10 4 -10 6 0 11 5 11 10 0 6 -2 10 -4 10 -3 0
-8 -4 -11 -10z"/>
<path d="M1820 6260 c0 -4 9 -10 20 -13 11 -3 20 -2 20 3 0 4 -9 10 -20 13
-11 3 -20 2 -20 -3z"/>
<path d="M1875 6240 c3 -5 8 -10 11 -10 2 0 4 5 4 10 0 6 -5 10 -11 10 -5 0
-7 -4 -4 -10z"/>
<path d="M5056 6027 c3 -10 9 -15 12 -12 3 3 0 11 -7 18 -10 9 -11 8 -5 -6z"/>
<path d="M1305 4840 c3 -5 8 -10 11 -10 2 0 4 5 4 10 0 6 -5 10 -11 10 -5 0
-7 -4 -4 -10z"/>
<path d="M1200 4820 c0 -13 7 -20 20 -20 18 0 19 2 8 20 -7 11 -16 20 -20 20
-5 0 -8 -9 -8 -20z"/>
<path d="M4483 4805 c-15 -7 -34 -10 -40 -8 -7 3 -13 0 -13 -6 0 -6 -8 -11
-18 -11 -10 0 -22 -3 -26 -7 -4 -5 -11 -8 -14 -9 -4 0 -24 -5 -45 -11 -21 -7
-48 -10 -62 -7 -13 2 -27 0 -30 -6 -3 -5 -19 -10 -36 -10 -16 0 -29 -3 -29 -8
0 -6 -28 -15 -107 -35 -7 -2 -16 -6 -19 -10 -4 -4 -15 -7 -24 -7 -10 0 -23 -7
-30 -15 -7 -8 -24 -15 -38 -15 -33 0 -102 -21 -102 -32 0 -4 -7 -8 -15 -8 -8
0 -15 -5 -15 -11 0 -5 -4 -8 -9 -4 -5 3 -12 1 -16 -5 -4 -6 -9 -8 -13 -6 -4 2
-16 -2 -27 -10 -10 -8 -13 -14 -6 -14 7 0 9 -5 6 -10 -4 -6 -11 -8 -16 -5 -5
4 -9 1 -9 -4 0 -6 -5 -11 -11 -11 -17 0 -70 -62 -65 -75 5 -13 -37 -55 -55
-55 -5 0 -22 -11 -37 -25 -29 -27 -38 -30 -47 -15 -3 6 1 7 9 4 9 -3 16 -1 16
5 0 11 -13 15 -37 12 -7 -1 -13 3 -13 9 0 6 -5 8 -10 5 -6 -4 -8 -11 -5 -16 4
-5 -3 -9 -14 -9 -11 0 -24 -6 -28 -14 -4 -8 -19 -16 -33 -18 -14 -1 46 -18
132 -35 213 -45 208 -42 208 -98 0 -26 -3 -44 -7 -42 -12 7 -97 45 -188 84
-141 61 -183 74 -255 77 -19 1 -40 5 -46 9 -15 9 -24 -1 -17 -19 6 -17 -18
-19 -34 -3 -8 8 -13 8 -17 0 -4 -6 -25 -11 -46 -11 -29 0 -40 5 -44 18 -10 29
-226 86 -226 60 0 -6 -12 -1 -26 13 -24 22 -32 24 -122 21 -95 -3 -254 -34
-279 -54 -9 -7 -13 -7 -13 1 0 7 -5 9 -10 6 -6 -4 -8 -11 -5 -16 3 -5 -1 -6
-9 -3 -21 8 -56 -14 -56 -35 0 -9 -16 -30 -35 -45 -42 -34 -47 -61 -10 -52 34
9 32 -2 -2 -15 -26 -10 -27 -12 -11 -23 10 -7 15 -15 12 -18 -3 -3 16 -5 43
-3 26 2 54 4 61 4 6 1 12 8 12 17 0 14 11 16 78 12 42 -2 86 -10 97 -16 51
-30 88 -35 275 -37 176 -1 205 -4 298 -28 57 -15 107 -27 111 -27 5 0 14 13
21 30 7 16 16 28 20 25 5 -3 10 1 13 7 2 8 25 14 63 15 64 1 109 7 144 18 20
6 22 4 18 -13 -4 -14 -2 -19 7 -15 8 2 23 -5 35 -17 16 -16 20 -28 15 -49 -5
-25 -3 -29 25 -34 24 -5 30 -12 30 -32 0 -14 5 -25 11 -25 12 0 6 -36 -16 -85
-25 -58 -25 -62 2 -57 16 3 21 7 13 12 -9 6 -6 14 10 30 28 28 33 22 19 -20
-17 -46 -46 -75 -64 -60 -10 8 -23 0 -57 -40 -135 -160 -381 -295 -649 -357
-104 -24 -394 -23 -499 1 -125 29 -141 30 -150 15 -10 -15 5 -39 24 -39 7 0
23 -11 36 -25 13 -14 25 -23 28 -21 2 3 25 -2 50 -9 133 -38 325 -56 468 -44
97 8 261 44 279 60 5 5 15 9 22 9 47 0 383 204 383 233 0 4 5 5 12 1 8 -5 9
-2 5 10 -4 10 -3 15 3 11 6 -3 23 3 39 14 16 11 41 25 57 31 19 8 24 14 16 19
-9 5 -7 13 9 27 13 10 19 13 14 5 -6 -11 -4 -13 9 -8 10 4 19 1 22 -8 4 -8 10
-15 16 -15 5 0 6 5 3 10 -12 19 2 10 37 -24 20 -19 33 -38 29 -42 -3 -4 1 -4
9 -2 8 3 14 12 12 19 -2 8 0 11 4 7 4 -4 13 -3 20 3 8 7 14 7 19 -1 10 -16 34
-12 52 10 22 26 64 26 133 -1 64 -24 120 -40 225 -65 17 -4 103 -9 192 -11
157 -5 334 12 397 37 11 5 46 16 76 25 215 64 444 215 561 372 21 29 39 54 39
57 0 3 -15 19 -32 35 l-33 30 -70 -72 c-158 -163 -329 -263 -576 -337 -292
-87 -646 -56 -936 81 -83 39 -173 97 -173 111 0 20 115 151 184 211 75 64 175
132 269 183 42 22 54 33 43 37 -23 9 -20 22 9 35 15 7 25 20 25 33 0 18 -2 19
-15 9 -13 -11 -14 -10 -9 4 3 9 10 17 15 17 10 2 25 5 37 9 4 1 11 2 15 1 5
-1 20 5 35 13 36 19 109 39 152 42 45 3 140 35 140 47 0 5 -9 7 -21 4 -25 -7
-36 17 -18 39 11 13 11 15 -2 14 -7 -1 -25 -2 -38 -1 -18 1 -21 4 -12 14 6 8
8 16 5 20 -3 3 5 3 18 0 19 -5 21 -3 11 8 -10 10 -9 16 4 31 9 10 12 18 7 18
-5 0 -3 4 5 9 7 5 28 5 46 1 29 -7 33 -5 32 11 -1 10 -3 16 -5 14 -2 -2 -12 5
-23 16 -11 11 -24 17 -30 13 -6 -3 -23 5 -37 19 -32 29 -80 38 -119 22z m-238
-465 c3 -5 2 -10 -4 -10 -5 0 -13 5 -16 10 -3 6 -2 10 4 10 5 0 13 -4 16 -10z
m-365 -34 c0 -2 -7 -6 -15 -10 -8 -3 -15 -1 -15 4 0 6 7 10 15 10 8 0 15 -2
15 -4z m-100 -591 c-7 -9 -15 -13 -18 -10 -3 2 1 11 8 20 7 9 15 13 18 10 3
-2 -1 -11 -8 -20z"/>
<path d="M4618 4663 c7 -3 16 -2 19 1 4 3 -2 6 -13 5 -11 0 -14 -3 -6 -6z"/>
<path d="M4680 4108 c-138 -29 -302 -71 -347 -89 -46 -19 -53 -25 -59 -55 -7
-40 9 -65 56 -84 25 -10 49 -7 157 18 151 36 245 54 291 54 50 0 76 27 68 69
-3 19 -15 49 -26 67 -17 27 -25 32 -57 31 -21 -1 -58 -5 -83 -11z"/>
<path d="M2918 3759 c-31 -4 -83 -15 -115 -23 -32 -8 -98 -17 -148 -21 -89 -6
-189 -28 -211 -46 -29 -23 -23 -52 16 -92 35 -34 44 -38 72 -33 18 3 86 10
150 16 64 6 132 15 150 21 18 5 69 14 113 19 91 11 110 25 99 75 -8 39 -42 95
-57 94 -7 -1 -38 -5 -69 -10z"/>
<path d="M4193 3203 c-13 -2 -23 -10 -23 -17 0 -19 36 -57 45 -48 5 4 5 -1 2
-11 -4 -11 -1 -20 9 -24 11 -4 14 -14 11 -32 -2 -14 -1 -37 3 -51 7 -27 -7
-97 -23 -117 -11 -15 -103 -18 -112 -4 -5 9 -71 8 -136 -3 -15 -2 -48 -14 -75
-26 -53 -25 -161 -34 -204 -18 -16 6 -26 6 -28 -1 -2 -5 -10 -7 -17 -4 -16 6
-115 -36 -115 -49 0 -4 -7 -8 -15 -8 -8 0 -15 -4 -15 -10 0 -5 -9 -10 -19 -10
-11 0 -23 -4 -26 -10 -4 -6 -44 -8 -101 -5 -91 4 -126 -3 -146 -29 -7 -11 10
-45 32 -63 22 -18 104 -58 113 -55 5 1 5 -3 1 -9 -3 -6 0 -15 7 -20 12 -7 11
-9 -1 -10 -8 -1 0 -5 19 -9 22 -5 69 -2 135 10 77 14 175 19 411 23 l311 5
169 -43 c166 -42 318 -94 440 -150 l60 -28 -57 -18 c-86 -27 -213 -42 -298
-34 -41 4 -154 23 -250 42 -148 31 -195 36 -305 36 -250 0 -411 -57 -697 -245
-196 -129 -294 -171 -453 -192 -55 -8 -90 -14 -78 -15 28 -1 33 -10 20 -41 -5
-14 -12 -34 -14 -45 -2 -11 -8 -21 -13 -23 -13 -5 -13 -32 0 -32 10 0 34 -49
27 -56 -1 -2 -13 -1 -25 3 -18 4 -20 8 -11 19 9 11 8 14 -4 14 -38 0 -48 -60
-10 -60 10 0 27 -7 37 -15 17 -13 18 -15 3 -15 -9 0 -17 6 -18 13 0 6 -4 2 -9
-10 -5 -13 -15 -21 -22 -19 -7 1 -10 1 -5 -1 4 -3 7 -11 7 -19 0 -8 5 -14 11
-14 13 0 39 -25 39 -38 0 -5 -13 -21 -30 -35 -26 -24 -33 -25 -57 -16 -72 29
-93 45 -103 75 -6 17 -24 49 -40 70 -16 22 -30 42 -30 47 0 4 -16 30 -35 57
-19 27 -35 54 -35 59 0 5 -7 14 -15 21 -8 7 -13 16 -10 20 2 4 -4 15 -15 25
-11 10 -20 25 -20 34 0 9 -9 27 -20 41 -11 14 -20 32 -20 41 0 36 -76 148
-114 168 -14 8 -26 17 -26 21 0 3 -12 7 -26 8 -15 1 -32 6 -39 12 -14 12 -134
11 -157 -1 -10 -6 -19 -5 -23 1 -4 6 -12 10 -18 8 -7 -1 -64 2 -127 6 -63 4
-168 9 -234 11 -66 3 -125 10 -132 16 -7 6 -19 9 -26 6 -7 -2 -21 0 -32 5 -13
7 -16 7 -12 -1 9 -14 5 -14 -37 4 -19 8 -37 11 -40 8 -4 -3 -12 -1 -19 4 -18
14 -98 4 -105 -13 -3 -8 -11 -14 -19 -14 -8 0 -14 -6 -14 -14 0 -8 -9 -18 -20
-21 -14 -4 -20 -15 -20 -33 1 -56 48 -232 62 -232 5 0 13 -12 18 -26 6 -15 14
-22 22 -18 6 4 8 3 5 -3 -4 -6 0 -16 8 -23 8 -7 15 -25 15 -41 0 -30 14 -39
24 -16 3 6 3 2 0 -10 -3 -13 -1 -23 5 -23 11 0 55 -88 54 -107 0 -7 10 -24 23
-38 31 -33 49 -67 45 -84 -1 -7 2 -10 9 -6 7 4 11 -5 10 -27 0 -18 0 -40 0
-48 1 -31 -14 -86 -29 -111 -57 -92 -73 -112 -83 -98 -8 11 -9 11 -5 -2 3 -9
-3 -26 -14 -37 -10 -12 -19 -26 -19 -32 0 -5 -4 -10 -9 -10 -5 0 -13 -10 -17
-22 -3 -13 -13 -30 -21 -39 -9 -11 -12 -30 -9 -55 3 -22 8 -59 12 -84 7 -54
23 -100 35 -100 5 0 9 -11 9 -25 0 -14 4 -25 9 -25 5 0 11 -10 14 -22 4 -13
16 -28 29 -33 13 -6 22 -16 21 -23 -2 -6 3 -9 11 -6 8 3 20 -3 27 -14 8 -10
23 -22 35 -26 11 -3 29 -14 40 -24 10 -9 40 -28 67 -42 26 -14 47 -29 47 -33
0 -5 4 -6 9 -2 5 3 20 -5 33 -17 36 -34 92 -78 101 -78 4 0 7 -5 7 -11 0 -6
15 -34 34 -62 24 -36 38 -72 45 -116 10 -63 29 -95 76 -131 24 -18 112 -52
143 -55 12 -1 22 -5 21 -10 -1 -13 25 -24 46 -19 12 3 29 -3 43 -16 12 -11 22
-18 22 -15 0 3 9 -4 21 -16 11 -11 27 -18 36 -15 8 3 29 0 46 -8 18 -8 51 -18
75 -21 23 -4 42 -11 42 -17 0 -5 6 -8 12 -6 14 5 38 -15 38 -30 0 -5 6 -10 13
-12 6 -1 243 -5 525 -7 510 -4 512 -3 512 17 0 11 -4 28 -9 38 -6 9 -22 49
-36 87 -14 39 -32 85 -40 103 -8 18 -15 41 -15 50 0 10 -4 22 -9 28 -5 5 -16
43 -26 84 -10 41 -21 82 -25 90 -25 51 -39 93 -46 139 -3 19 -14 56 -24 81
-10 25 -20 63 -21 85 -4 37 -2 40 24 43 25 3 27 1 27 -34 0 -36 1 -37 16 -18
13 16 15 16 10 2 -3 -11 4 -24 19 -37 14 -10 25 -26 25 -34 0 -8 10 -18 23
-22 12 -4 25 -8 30 -10 4 -1 12 -3 18 -4 5 0 7 -6 4 -11 -4 -6 -11 -8 -16 -5
-5 4 -9 2 -9 -3 0 -10 74 -62 89 -62 17 0 31 -26 20 -37 -8 -8 4 -14 41 -22
28 -6 60 -11 70 -11 13 0 17 -5 14 -14 -3 -9 6 -22 23 -33 15 -10 39 -28 53
-40 14 -13 30 -23 37 -23 7 0 13 -4 13 -8 0 -5 21 -19 48 -32 26 -13 56 -32
66 -42 11 -10 25 -18 30 -18 6 0 17 -9 24 -20 7 -12 17 -18 22 -15 6 3 10 -1
10 -10 0 -9 4 -14 9 -10 6 3 15 -4 21 -15 6 -11 17 -20 25 -20 8 0 15 -4 15
-9 0 -5 13 -12 30 -16 16 -4 34 -14 39 -23 5 -9 13 -14 16 -10 4 4 19 -6 35
-22 34 -35 67 -53 82 -44 6 4 8 3 4 -4 -3 -6 6 -13 24 -17 20 -4 36 -17 45
-36 9 -16 20 -29 25 -29 6 0 10 -7 10 -15 0 -13 192 -15 1665 -15 l1665 0 0
233 0 234 -102 17 c-111 19 -111 19 -237 65 -87 32 -207 112 -239 159 -25 38
-40 90 -41 142 -1 25 -2 52 -3 60 -1 8 4 42 12 76 11 51 18 63 42 73 34 15
192 9 253 -10 22 -7 44 -13 48 -13 4 -1 11 -7 16 -14 5 -8 11 -13 15 -12 13 4
71 -24 91 -43 11 -11 30 -26 43 -34 12 -9 22 -21 22 -28 0 -8 8 -16 18 -19 10
-4 28 -23 40 -44 l22 -37 0 519 0 518 -29 -4 c-17 -2 -28 -1 -25 4 8 13 -13 9
-28 -5 -28 -27 -186 -51 -225 -34 -15 7 -27 6 -36 -1 -7 -6 -18 -8 -24 -4 -6
4 -47 7 -91 7 -44 0 -78 4 -75 9 3 4 -4 5 -16 1 -13 -4 -21 -2 -21 5 0 7 -6
10 -13 7 -8 -3 -49 3 -92 14 -61 14 -81 16 -87 6 -6 -9 -12 -9 -29 1 -12 8
-32 11 -50 7 -19 -4 -29 -3 -29 5 0 7 -6 5 -16 -4 -18 -18 -30 -20 -39 -7 -3
6 -13 10 -23 10 -59 1 -161 10 -181 15 -25 6 -100 82 -101 101 0 6 -17 24 -37
40 -40 31 -56 62 -28 51 9 -3 13 -2 10 4 -3 6 -13 10 -21 10 -8 0 -13 4 -9 10
3 5 -1 25 -9 44 -8 19 -12 37 -9 40 4 3 8 20 10 38 2 18 7 36 12 41 5 5 7 16
4 23 -3 8 1 14 8 14 10 0 14 12 13 40 -2 30 2 41 16 45 10 3 21 13 24 23 6 16
16 34 41 72 5 8 8 25 6 37 -1 13 4 29 12 37 10 11 12 27 7 62 -8 50 2 110 26
162 8 18 12 36 9 41 -3 5 -1 12 3 15 5 3 7 18 5 33 -6 39 -4 124 3 135 3 5 -2
18 -12 29 -16 18 -16 20 -1 37 10 10 17 26 17 35 0 9 5 17 11 17 5 0 8 4 5 9
-4 5 -2 11 4 13 19 6 -8 30 -39 33 -17 1 -28 -1 -25 -6 3 -5 -4 -9 -15 -9 -11
0 -22 -4 -25 -9 -3 -5 -18 -12 -32 -15 -15 -4 -34 -15 -43 -25 -22 -25 -93
-43 -155 -40 -67 3 -119 -17 -113 -42 3 -11 2 -19 -3 -19 -12 0 -7 -84 7 -98
15 -15 17 -32 4 -32 -9 0 -12 -139 -3 -154 3 -5 7 -50 8 -100 2 -50 6 -116 9
-146 6 -66 44 -230 57 -247 6 -7 11 -57 13 -112 2 -54 8 -109 15 -120 8 -16 8
-21 -2 -21 -9 0 -10 -3 -2 -8 11 -7 14 -29 30 -177 3 -33 9 -64 12 -70 3 -5 7
-57 9 -115 4 -108 13 -143 95 -395 24 -72 30 -108 30 -180 1 -107 -6 -165 -21
-194 -8 -14 -8 -21 -1 -21 15 0 12 -19 -5 -37 -12 -12 -13 -18 -4 -29 8 -10 8
-14 0 -14 -6 0 -11 -5 -11 -10 0 -6 -10 -24 -21 -40 -12 -16 -19 -36 -16 -44
4 -9 1 -15 -5 -13 -6 1 -14 -9 -17 -22 -6 -23 -38 -43 -53 -34 -5 2 -8 -1 -8
-6 0 -6 4 -11 8 -11 15 0 31 -46 21 -61 -5 -8 -9 -27 -10 -44 l-1 -30 -9 30
c-8 29 -8 28 -3 -5 11 -86 9 -98 -18 -102 -15 -2 -24 -11 -26 -25 -2 -13 -9
-23 -15 -23 -7 0 -13 -14 -14 -30 -2 -22 1 -29 10 -23 7 4 5 -4 -4 -17 -9 -14
-22 -26 -28 -26 -6 -1 -17 -2 -23 -3 -13 -1 -49 -54 -54 -78 -1 -6 -7 -19 -13
-30 -10 -17 -10 -17 -11 0 0 9 -5 17 -11 17 -6 0 -8 -7 -5 -17 8 -20 -25 -53
-54 -53 -12 0 -28 6 -36 14 -15 15 -19 45 -6 47 47 7 68 6 74 -4 6 -9 8 -8 8
3 0 8 -15 21 -32 29 -18 8 -41 23 -52 34 -15 15 -20 16 -27 6 -4 -7 -11 -11
-14 -7 -11 11 43 40 57 32 10 -6 10 -4 -1 9 -7 9 -17 15 -21 12 -12 -8 -17 16
-14 65 1 25 0 39 -2 33 -4 -9 -11 -9 -29 3 -13 9 -29 13 -35 9 -5 -3 -10 -1
-10 4 0 6 -11 11 -25 11 -18 0 -23 -4 -18 -16 5 -13 2 -15 -15 -9 -18 5 -22 2
-22 -14 0 -12 -6 -21 -12 -21 -22 0 -41 17 -34 29 5 7 1 9 -9 4 -15 -5 -15 -8
3 -25 10 -11 27 -21 38 -22 14 -2 21 -14 25 -47 7 -47 2 -67 -8 -31 -4 18 -12
22 -46 22 -40 0 -40 0 -22 -20 20 -22 16 -34 -9 -24 -16 6 -16 16 0 74 6 21 4
23 -7 13 -7 -7 -23 -13 -35 -13 -29 0 -42 -35 -30 -77 6 -19 4 -21 -21 -19
-15 2 -34 4 -40 5 -7 0 -13 8 -13 16 0 8 -8 15 -17 14 -11 0 -13 -3 -5 -6 6
-2 9 -9 6 -14 -8 -14 -34 9 -34 31 0 20 -33 53 -43 43 -4 -3 -7 6 -7 20 0 17
8 30 21 38 16 8 18 13 9 19 -16 10 27 51 46 43 19 -7 18 14 -2 25 -14 8 -14
10 -1 15 9 3 21 0 27 -8 16 -19 39 -8 33 16 -6 21 12 27 21 7 3 -7 4 -4 1 7
-2 11 0 27 6 35 9 13 10 12 5 -2 -3 -10 -1 -20 4 -23 6 -4 10 5 10 19 0 14 -6
26 -12 26 -7 0 -2 9 11 19 16 12 20 21 12 25 -6 4 -10 21 -8 39 1 19 -3 32
-10 32 -16 0 -29 15 -13 15 7 0 3 9 -11 21 -24 20 -21 27 16 43 6 3 3 9 -5 16
-12 9 -11 10 6 6 15 -5 24 0 32 18 12 28 5 123 -11 144 -6 8 -5 17 3 27 10 12
15 13 20 4 8 -13 42 15 53 44 8 22 24 22 30 0 2 -10 3 4 2 31 -1 46 -4 51 -30
58 -16 4 -32 13 -36 19 -6 10 -11 10 -22 1 -11 -10 -17 -9 -26 2 -10 12 -8 17
8 25 31 17 37 50 12 67 -24 17 -28 36 -7 28 8 -3 17 0 22 7 4 8 3 10 -5 5 -6
-4 -14 0 -18 9 -3 10 0 21 7 25 7 4 10 17 7 29 -3 12 -1 21 4 21 5 0 9 -8 9
-17 0 -13 3 -14 12 -5 6 6 11 25 10 41 0 22 3 28 14 24 11 -4 14 1 10 21 -2
14 0 28 5 31 5 4 9 19 9 34 0 15 5 32 12 39 9 9 9 17 -1 36 -11 19 -11 28 0
47 7 13 12 32 10 42 -1 9 3 17 8 17 6 0 11 6 11 14 0 8 6 17 13 20 9 5 9 7 0
12 -8 4 -7 10 4 24 9 10 21 16 26 13 6 -3 7 -1 3 5 -3 6 -2 13 4 17 6 4 8 10
5 15 -3 5 -1 11 4 14 5 4 -2 19 -16 34 -23 25 -23 27 -6 32 10 3 19 16 21 30
1 14 9 30 18 37 9 7 11 13 5 17 -7 5 -7 15 -1 32 13 33 13 34 -5 28 -8 -4 -15
-1 -15 4 0 6 8 13 18 16 17 6 27 36 12 36 -9 0 1 63 12 78 7 8 7 12 -1 12 -6
0 -11 10 -11 23 0 16 -3 18 -9 9 -4 -8 -11 -12 -14 -10 -11 5 -57 -34 -51 -43
3 -5 -4 -9 -15 -9 -12 0 -21 -4 -21 -10 0 -5 -15 -25 -34 -45 -30 -31 -38 -34
-60 -25 -23 8 -26 7 -26 -11 0 -14 -5 -19 -14 -16 -17 7 -39 -16 -28 -28 4 -4
-4 -4 -18 0 -14 5 -30 8 -37 8 -7 0 -10 3 -8 7 2 3 1 11 -3 17 -5 7 -11 6 -20
-3 -7 -8 -8 -14 -2 -14 5 0 10 -4 10 -9 0 -5 -9 -7 -20 -4 -11 3 -20 9 -20 14
0 5 -9 9 -19 9 -11 0 -23 5 -27 11 -3 6 -15 9 -25 6 -25 -7 -24 8 0 25 14 10
18 21 14 41 -5 28 -17 35 -28 17 -11 -18 -35 17 -36 52 0 30 -1 31 -10 10 -10
-26 -50 -28 -56 -2 -4 13 -3 13 6 0 9 -13 11 -12 12 5 l0 20 9 -20 c6 -15 8
-9 7 23 -1 38 -5 45 -34 59 -28 13 -32 19 -26 41 6 26 6 27 -13 8 -19 -20 -19
-19 -22 8 -2 19 -9 26 -20 25 -26 -4 -63 11 -56 22 3 6 0 10 -7 8 -8 -1 -22
-1 -33 0 -15 1 -16 4 -7 15 8 10 9 16 1 21 -6 3 -8 11 -5 16 4 5 1 9 -6 9 -7
0 -4 7 7 15 16 13 16 14 2 9 -33 -11 -18 17 16 31 38 16 49 34 30 52 -7 7 -10
22 -7 33 4 16 11 19 27 14 20 -6 20 -5 5 12 -19 23 -22 63 -7 81 6 8 8 16 4
20 -3 3 -6 1 -6 -5 0 -25 -27 -10 -42 24 -15 33 -15 35 0 30 11 -4 9 1 -6 13
-13 12 -18 22 -12 26 5 3 10 2 10 -3 0 -14 47 -21 59 -9 18 18 12 37 -11 37
l-23 1 23 12 c12 7 19 16 16 20 -4 4 1 7 12 7 14 0 16 2 6 9 -8 4 -14 12 -14
17 -2 39 -33 45 -67 13 -23 -21 -23 -21 -17 -2 7 22 -9 34 -54 39 -14 1 -17 0
-7 -3 9 -2 17 -8 17 -13 0 -15 -34 2 -53 27 -10 13 -23 21 -28 18 -5 -4 -9 -1
-9 4 0 6 6 11 13 12 6 0 3 4 -8 9 -11 4 -30 6 -41 3 -12 -2 -25 0 -28 6 -4 6
-16 11 -27 11 -10 0 -19 5 -19 11 0 5 -4 7 -10 4 -5 -3 -10 3 -10 14 0 16 -5
18 -31 14 -16 -2 -36 0 -42 5 -7 4 -27 9 -46 10 -18 2 -45 11 -59 22 -13 11
-31 20 -38 20 -8 0 -14 5 -14 10 0 7 -6 7 -20 0 -13 -7 -20 -7 -20 -1 0 6 -16
13 -35 17 -19 3 -35 10 -35 14 0 9 -49 32 -80 37 -30 5 -50 21 -50 39 0 8 -4
14 -10 14 -14 0 -50 37 -50 51 0 8 -13 9 -40 5 -25 -4 -40 -2 -40 4 0 5 9 10
20 10 11 0 20 5 20 10 0 6 -1 9 -2 9 -2 -1 -13 -4 -25 -6z m524 -289 c-3 -3
-12 -4 -19 -1 -8 3 -5 6 6 6 11 1 17 -2 13 -5z m-252 -108 c9 -9 10 -17 4 -23
-7 -7 1 -13 23 -18 18 -4 27 -9 21 -12 -19 -7 -16 -23 5 -24 14 0 14 -2 -3 -9
-11 -5 -15 -10 -10 -11 6 -1 15 -3 20 -4 6 -2 17 -4 25 -5 11 -1 9 -4 -5 -10
-16 -7 -17 -9 -3 -9 11 -1 15 -7 11 -21 -3 -11 -9 -20 -14 -20 -5 0 -8 -3 -8
-7 1 -5 1 -15 0 -23 -1 -13 -3 -13 -10 -1 -8 13 -12 13 -26 1 -14 -12 -18 -12
-26 1 -6 9 -12 10 -16 4 -5 -6 -19 -12 -33 -13 -17 -1 -20 2 -11 7 11 7 10 13
-4 35 -10 14 -21 26 -25 26 -5 0 -6 9 -3 21 4 12 0 25 -8 29 -18 12 -5 23 27
23 26 0 27 0 9 13 -17 12 -17 14 -2 14 9 0 17 4 17 10 0 5 6 7 14 4 8 -3 17
-1 21 5 3 6 1 11 -4 11 -6 0 -11 5 -11 10 0 14 9 13 25 -4z m-94 -43 c-8 -15
-10 -15 -11 -2 0 17 10 32 18 25 2 -3 -1 -13 -7 -23z m748 1 c-17 -21 -38 -17
-32 5 3 13 11 17 24 14 15 -4 17 -8 8 -19z m-19 -34 c0 -5 -2 -10 -4 -10 -3 0
-8 5 -11 10 -3 6 -1 10 4 10 6 0 11 -4 11 -10z m-30 -330 c0 -5 -5 -10 -11
-10 -5 0 -7 5 -4 10 3 6 8 10 11 10 2 0 4 -4 4 -10z m-680 -426 c0 -14 3 -14
15 -4 12 10 15 10 15 -1 0 -32 -13 -57 -31 -62 -11 -3 -19 -14 -19 -26 0 -18
-4 -20 -25 -15 -16 4 -25 2 -25 -6 0 -8 -9 -10 -27 -6 -17 5 -29 3 -34 -6 -6
-9 -9 -6 -9 10 0 13 -6 22 -16 22 -8 0 -12 5 -9 11 4 6 1 10 -6 8 -29 -3 -39
2 -39 20 0 13 6 18 18 16 9 -1 22 0 27 4 9 5 140 47 158 50 4 0 7 -6 7 -15z
m65 6 c-3 -5 -12 -10 -18 -10 -7 0 -6 4 3 10 19 12 23 12 15 0z m15 -20 c0 -5
-5 -10 -11 -10 -5 0 -7 5 -4 10 3 6 8 10 11 10 2 0 4 -4 4 -10z m7 -37 c0 -22
-15 -33 -34 -26 -11 4 -11 9 3 24 21 24 31 24 31 2z m-877 -43 c0 -5 9 -10 20
-10 38 0 13 -50 -27 -56 -19 -3 -38 -21 -38 -37 -1 -7 -6 -11 -12 -10 -7 2
-15 -7 -19 -20 -4 -12 -12 -26 -18 -30 -7 -6 -5 -7 6 -4 10 4 18 -1 21 -14 3
-10 12 -19 19 -19 22 0 43 -51 26 -61 -10 -7 -9 -9 3 -9 9 0 19 -7 23 -15 3
-8 13 -15 22 -15 10 0 14 -5 10 -15 -3 -8 -1 -15 3 -15 5 0 12 6 14 13 3 7 6
5 6 -5 1 -10 5 -18 9 -18 5 0 19 -9 32 -20 13 -11 39 -21 59 -21 86 -4 196 4
213 15 14 8 20 8 27 -2 6 -10 14 -10 35 -2 15 5 32 8 37 4 5 -3 9 0 9 5 0 6
13 11 29 11 17 0 32 4 36 9 3 6 25 13 49 16 37 6 46 11 51 34 7 24 8 25 15 6
8 -19 9 -19 9 -1 1 16 7 18 56 14 40 -3 55 -1 55 8 0 7 5 16 12 20 7 4 8 3 4
-4 -5 -8 5 -11 33 -9 21 1 39 6 38 12 -1 5 8 11 21 13 17 3 21 7 13 16 -17 20
56 14 76 -7 10 -9 12 -17 6 -17 -6 0 -14 6 -16 13 -3 6 -5 1 -5 -13 0 -14 -4
-37 -10 -52 -9 -21 -8 -29 6 -41 9 -8 23 -12 30 -10 6 3 12 0 12 -6 0 -6 5
-11 11 -11 6 0 17 -7 25 -15 14 -13 13 -15 -8 -16 -23 -1 -23 -1 2 -9 14 -4
40 -8 58 -9 17 -1 32 -4 32 -9 0 -4 -11 -27 -24 -52 -24 -46 -137 -298 -336
-750 -62 -140 -123 -276 -136 -302 -30 -59 -30 -74 -2 -81 12 -4 19 -9 16 -12
-3 -4 -20 1 -38 10 -18 9 -29 19 -26 22 6 6 -111 237 -297 588 -153 290 -175
327 -190 318 -7 -4 -24 -6 -38 -5 -14 2 -31 -4 -39 -12 -7 -9 -21 -16 -31 -16
-11 0 -19 -5 -19 -10 0 -6 -8 -5 -20 2 -17 11 -22 10 -30 -2 -8 -13 -10 -12
-10 4 0 14 -5 17 -25 12 -15 -4 -25 -2 -25 4 0 6 -4 9 -9 6 -13 -8 -71 17 -71
31 0 6 9 15 20 18 25 8 25 23 0 55 -11 14 -20 33 -20 42 0 23 -43 44 -104 52
-59 8 -73 15 -55 27 11 7 10 9 -3 9 -10 0 -18 5 -18 10 0 6 9 10 20 10 11 0
20 4 20 9 0 5 9 7 20 4 12 -3 20 0 20 7 0 6 -6 10 -12 7 -20 -7 -48 12 -48 32
0 11 14 31 30 44 17 14 30 33 30 42 0 9 4 14 9 11 5 -3 11 4 14 16 8 27 -1 38
-13 18 -8 -13 -10 -12 -10 3 0 9 -4 17 -10 17 -5 0 -10 9 -10 20 0 13 7 20 20
20 19 0 25 10 20 39 -3 23 22 61 40 61 9 0 28 9 41 21 35 31 80 52 114 56 50
4 86 11 93 17 9 9 22 7 22 -4z m-785 -40 c3 -5 1 -10 -4 -10 -6 0 -11 5 -11
10 0 6 2 10 4 10 3 0 8 -4 11 -10z m10 -79 c-3 -6 -11 -11 -16 -11 -5 0 -4 6
3 14 14 16 24 13 13 -3z m-13 -183 c-15 -15 -26 -4 -18 18 5 13 9 15 18 6 9
-9 9 -15 0 -24z m2785 -810 c-3 -7 -5 -2 -5 12 0 14 2 19 5 13 2 -7 2 -19 0
-25z m603 -463 c0 -8 -4 -15 -10 -15 -5 0 -10 7 -10 15 0 8 5 15 10 15 6 0 10
-7 10 -15z m-400 -35 c0 -5 -2 -10 -4 -10 -3 0 -8 5 -11 10 -3 6 -1 10 4 10 6
0 11 -4 11 -10z m-33 -72 c-3 -8 -6 -5 -6 6 -1 11 2 17 5 13 3 -3 4 -12 1 -19z
m83 6 c0 -8 -4 -12 -10 -9 -5 3 -10 10 -10 16 0 5 5 9 10 9 6 0 10 -7 10 -16z
m-400 -51 c0 -13 -5 -23 -11 -23 -5 0 -9 10 -7 23 2 13 -2 21 -9 20 -15 -3
-15 -1 -7 21 6 15 8 15 20 -1 7 -10 14 -28 14 -40z m257 31 c-3 -3 -12 -4 -19
-1 -8 3 -5 6 6 6 11 1 17 -2 13 -5z m97 -106 c7 -5 4 -8 -6 -8 -12 0 -18 7
-17 23 0 15 2 17 6 7 3 -8 11 -18 17 -22z m82 6 c-3 -9 -6 -18 -6 -20 0 -2 -4
-4 -9 -4 -5 0 -7 9 -4 20 3 11 10 20 15 20 6 0 7 -7 4 -16z m-36 -4 c0 -5 -5
-10 -11 -10 -5 0 -7 5 -4 10 3 6 8 10 11 10 2 0 4 -4 4 -10z"/>
<path d="M4430 2752 c0 -4 9 -8 19 -8 11 0 17 4 15 8 -3 4 -12 8 -20 8 -8 0
-14 -4 -14 -8z"/>
<path d="M4018 1483 c12 -2 30 -2 40 0 9 3 -1 5 -23 4 -22 0 -30 -2 -17 -4z"/>
<path d="M4093 1483 c9 -2 23 -2 30 0 6 3 -1 5 -18 5 -16 0 -22 -2 -12 -5z"/>
<path d="M3285 1450 c3 -5 8 -10 11 -10 2 0 4 5 4 10 0 6 -5 10 -11 10 -5 0
-7 -4 -4 -10z"/>
<path d="M3005 2877 c-5 -7 -16 -24 -24 -39 -8 -15 -22 -30 -33 -34 -10 -3
-18 -9 -18 -13 0 -4 -11 -13 -24 -19 -13 -6 -27 -20 -31 -31 -3 -11 -15 -23
-26 -26 -10 -4 -19 -15 -19 -25 0 -13 -5 -17 -15 -14 -18 7 -20 -12 -2 -20 8
-3 7 -5 -3 -4 -21 3 -62 -21 -55 -33 4 -5 -3 -9 -13 -9 -33 0 -121 -54 -109
-66 9 -9 -22 -44 -37 -44 -7 0 -11 -15 -11 -35 1 -19 -3 -35 -9 -35 -6 0 0 -9
13 -19 14 -11 21 -23 17 -30 -4 -7 -2 -18 4 -26 10 -12 9 -15 -3 -15 -21 0
-25 -8 -31 -63 -6 -45 -5 -48 21 -57 58 -21 76 -36 96 -78 11 -24 26 -46 34
-49 7 -3 13 -12 13 -20 0 -8 5 -11 10 -8 14 9 13 -8 -2 -23 -7 -7 -10 -12 -7
-12 2 0 58 54 124 121 66 66 113 119 105 117 -10 -2 -15 5 -15 24 1 14 -3 24
-7 22 -11 -7 -21 43 -12 58 5 7 9 19 10 27 2 7 12 23 24 36 11 12 20 26 19 31
-3 13 18 62 40 93 13 19 16 32 10 49 -5 14 -5 22 2 22 6 0 9 11 7 24 -1 13 3
30 10 38 6 8 15 37 18 64 4 38 3 46 -6 34 -9 -12 -11 -11 -9 10 3 51 -1 81
-10 75 -5 -3 -12 -1 -16 5 -8 13 -18 12 -30 -3z"/>
<path d="M3360 2540 c-9 -6 -10 -10 -3 -10 6 0 15 5 18 10 8 12 4 12 -15 0z"/>
<path d="M3304 2504 c-18 -14 -18 -15 4 -4 12 6 22 13 22 15 0 8 -5 6 -26 -11z"/>
<path d="M210 2270 l0 -170 30 4 c17 2 33 0 35 -5 3 -4 29 -5 58 -3 28 3 60 6
69 7 9 1 14 5 12 9 -3 4 1 8 10 8 24 0 103 82 117 122 10 31 10 42 0 62 -8 14
-10 30 -5 38 6 10 4 10 -9 -1 -15 -12 -17 -12 -12 1 6 14 -52 65 -62 54 -3 -3
-15 0 -27 6 -34 19 -117 36 -178 37 l-38 1 0 -170z"/>
<path d="M5831 2317 c-18 -13 -31 -31 -31 -43 0 -12 -6 -24 -14 -27 -9 -3 -13
-16 -12 -31 2 -14 0 -26 -5 -26 -4 0 -2 -19 5 -43 7 -23 11 -48 10 -55 -1 -7
0 -8 3 -2 2 5 9 8 14 4 5 -3 9 0 9 7 0 7 6 4 14 -6 8 -11 12 -23 10 -27 -3 -5
0 -8 5 -8 6 0 11 5 11 12 0 6 7 19 15 29 9 9 18 34 19 55 2 22 5 39 6 39 0 0
3 19 5 41 3 29 0 46 -11 54 -8 8 -11 16 -6 19 6 4 4 11 -3 18 -10 9 -20 6 -44
-10z m-31 -151 c0 -3 -4 -8 -10 -11 -5 -3 -10 -1 -10 4 0 6 5 11 10 11 6 0 10
-2 10 -4z"/>
<path d="M5752 2140 c0 -14 2 -19 5 -12 2 6 2 18 0 25 -3 6 -5 1 -5 -13z"/>
<path d="M5345 2060 c-3 -5 -1 -10 4 -10 6 0 11 5 11 10 0 6 -2 10 -4 10 -3 0
-8 -4 -11 -10z"/>
<path d="M5600 850 c0 -5 5 -10 10 -10 6 0 10 5 10 10 0 6 -4 10 -10 10 -5 0
-10 -4 -10 -10z"/>
<path d="M5620 536 c0 -9 5 -16 10 -16 6 0 10 4 10 9 0 6 -4 13 -10 16 -5 3
-10 -1 -10 -9z"/>
<path d="M5900 279 c-13 -9 -12 -10 3 -5 21 7 22 -7 2 -24 -8 -7 -12 -17 -9
-22 4 -6 10 -5 15 3 4 8 14 14 21 14 18 0 16 39 -2 42 -8 2 -22 -2 -30 -8z"/>
</g>
</svg>
