<?xml version="1.0" standalone="no"?>
<!DOCTYPE svg PUBLIC "-//W3C//DTD SVG 20010904//EN"
 "http://www.w3.org/TR/2001/REC-SVG-20010904/DTD/svg10.dtd">
<svg version="1.0" xmlns="http://www.w3.org/2000/svg"
 width="256.000000pt" height="256.000000pt" viewBox="0 0 256.000000 256.000000"
 preserveAspectRatio="xMidYMid meet">
<metadata>
Created by potrace 1.11, written by Peter Selinger 2001-2013
</metadata>
<g transform="translate(0.000000,256.000000) scale(0.100000,-0.100000)"
fill="#000000" stroke="none">
<path d="M1160 2548 c-214 -23 -401 -121 -515 -268 -87 -113 -132 -222 -169
-411 -6 -27 9 -40 50 -45 21 -2 57 -6 79 -9 22 -2 65 -7 95 -11 30 -3 57 -8
60 -10 12 -6 34 16 37 38 7 47 46 164 74 220 180 359 748 314 880 -70 19 -55
26 -158 15 -212 -18 -84 -71 -158 -200 -280 -387 -365 -425 -431 -441 -772
l-4 -97 149 1 c83 0 150 3 151 6 0 4 2 32 4 62 9 122 15 158 34 219 28 91 70
146 205 274 254 239 307 299 363 412 17 33 33 74 37 90 5 17 10 39 13 50 3 11
7 65 9 121 6 186 -45 318 -175 458 -124 132 -278 205 -485 231 -80 10 -190 11
-266 3z"/>
<path d="M1110 180 l0 -175 175 0 175 0 -2 175 -3 175 -172 0 -173 1 0 -176z"/>
</g>
</svg>
